<mxfile host="app.diagrams.net" agent="Mozilla/5.0 (Windows NT 10.0; Win64; x64) AppleWebKit/537.36 (KHTML, like Gecko) Chrome/130.0.0.0 Safari/537.36 Edg/130.0.0.0" version="24.8.2" pages="3">
  <diagram name="Página-1" id="8EE6ibz6mlamsGFy62vY">
    <mxGraphModel dx="786" dy="511" grid="1" gridSize="10" guides="1" tooltips="1" connect="1" arrows="1" fold="1" page="1" pageScale="1" pageWidth="827" pageHeight="1169" math="0" shadow="0">
      <root>
        <mxCell id="0" />
        <mxCell id="1" parent="0" />
        <mxCell id="_V6j0eVr6DSJ3JSRlbaT-1" value="&lt;p style=&quot;margin:0px;margin-top:4px;text-align:center;&quot;&gt;&lt;b&gt;Middleware &quot;admin&quot;&lt;/b&gt;&lt;/p&gt;&lt;hr size=&quot;1&quot; style=&quot;border-style:solid;&quot;&gt;&lt;div style=&quot;height:2px;&quot;&gt;&lt;/div&gt;" style="verticalAlign=top;align=left;overflow=fill;html=1;whiteSpace=wrap;" vertex="1" parent="1">
          <mxGeometry x="210" y="20" width="210" height="470" as="geometry" />
        </mxCell>
        <mxCell id="_V6j0eVr6DSJ3JSRlbaT-2" value="&lt;p style=&quot;margin:0px;margin-top:4px;text-align:center;&quot;&gt;&lt;b&gt;Controlador de usuarios&lt;/b&gt;&lt;/p&gt;&lt;hr size=&quot;1&quot; style=&quot;border-style:solid;&quot;&gt;&lt;div style=&quot;height:2px;&quot;&gt;&lt;/div&gt;" style="verticalAlign=top;align=left;overflow=fill;html=1;whiteSpace=wrap;" vertex="1" parent="1">
          <mxGeometry x="420" y="20" width="210" height="470" as="geometry" />
        </mxCell>
        <mxCell id="_V6j0eVr6DSJ3JSRlbaT-21" value="&lt;p style=&quot;margin:0px;margin-top:4px;text-align:center;&quot;&gt;&lt;b&gt;Usuario&lt;/b&gt;&lt;/p&gt;&lt;hr size=&quot;1&quot; style=&quot;border-style:solid;&quot;&gt;&lt;div style=&quot;height:2px;&quot;&gt;&lt;/div&gt;" style="verticalAlign=top;align=left;overflow=fill;html=1;whiteSpace=wrap;" vertex="1" parent="1">
          <mxGeometry y="20" width="210" height="470" as="geometry" />
        </mxCell>
        <mxCell id="_V6j0eVr6DSJ3JSRlbaT-34" value="" style="ellipse;html=1;shape=startState;fillColor=#000000;strokeColor=#ff0000;" vertex="1" parent="1">
          <mxGeometry x="90" y="50" width="30" height="30" as="geometry" />
        </mxCell>
        <mxCell id="_V6j0eVr6DSJ3JSRlbaT-35" value="" style="edgeStyle=orthogonalEdgeStyle;html=1;verticalAlign=bottom;endArrow=open;endSize=8;strokeColor=#ff0000;rounded=0;" edge="1" source="_V6j0eVr6DSJ3JSRlbaT-34" parent="1">
          <mxGeometry relative="1" as="geometry">
            <mxPoint x="105" y="140" as="targetPoint" />
          </mxGeometry>
        </mxCell>
        <mxCell id="_V6j0eVr6DSJ3JSRlbaT-41" style="edgeStyle=orthogonalEdgeStyle;rounded=0;orthogonalLoop=1;jettySize=auto;html=1;entryX=0;entryY=0.5;entryDx=0;entryDy=0;" edge="1" parent="1" source="_V6j0eVr6DSJ3JSRlbaT-36" target="_V6j0eVr6DSJ3JSRlbaT-39">
          <mxGeometry relative="1" as="geometry" />
        </mxCell>
        <mxCell id="_V6j0eVr6DSJ3JSRlbaT-36" value="Solicita ingresar&amp;nbsp;&lt;div&gt;al módulo de usuarios&lt;/div&gt;" style="html=1;whiteSpace=wrap;" vertex="1" parent="1">
          <mxGeometry x="50" y="140" width="110" height="50" as="geometry" />
        </mxCell>
        <mxCell id="_V6j0eVr6DSJ3JSRlbaT-44" style="edgeStyle=orthogonalEdgeStyle;rounded=0;orthogonalLoop=1;jettySize=auto;html=1;entryX=1;entryY=0.5;entryDx=0;entryDy=0;" edge="1" parent="1" source="_V6j0eVr6DSJ3JSRlbaT-39" target="_V6j0eVr6DSJ3JSRlbaT-42">
          <mxGeometry relative="1" as="geometry">
            <Array as="points">
              <mxPoint x="325" y="250" />
            </Array>
          </mxGeometry>
        </mxCell>
        <mxCell id="_V6j0eVr6DSJ3JSRlbaT-49" style="edgeStyle=orthogonalEdgeStyle;rounded=0;orthogonalLoop=1;jettySize=auto;html=1;entryX=0;entryY=0.5;entryDx=0;entryDy=0;" edge="1" parent="1" source="_V6j0eVr6DSJ3JSRlbaT-39" target="_V6j0eVr6DSJ3JSRlbaT-48">
          <mxGeometry relative="1" as="geometry" />
        </mxCell>
        <mxCell id="_V6j0eVr6DSJ3JSRlbaT-39" value="¿Es administrador?" style="rhombus;whiteSpace=wrap;html=1;" vertex="1" parent="1">
          <mxGeometry x="280" y="120" width="90" height="90" as="geometry" />
        </mxCell>
        <mxCell id="_V6j0eVr6DSJ3JSRlbaT-46" style="edgeStyle=orthogonalEdgeStyle;rounded=0;orthogonalLoop=1;jettySize=auto;html=1;" edge="1" parent="1" source="_V6j0eVr6DSJ3JSRlbaT-42" target="_V6j0eVr6DSJ3JSRlbaT-36">
          <mxGeometry relative="1" as="geometry" />
        </mxCell>
        <mxCell id="_V6j0eVr6DSJ3JSRlbaT-42" value="Redirige a página de error 404 &quot;no encontrado&quot;" style="whiteSpace=wrap;html=1;" vertex="1" parent="1">
          <mxGeometry x="55" y="230" width="100" height="40" as="geometry" />
        </mxCell>
        <mxCell id="_V6j0eVr6DSJ3JSRlbaT-45" value="No" style="text;html=1;align=center;verticalAlign=middle;whiteSpace=wrap;rounded=0;" vertex="1" parent="1">
          <mxGeometry x="260" y="210" width="60" height="30" as="geometry" />
        </mxCell>
        <mxCell id="_V6j0eVr6DSJ3JSRlbaT-47" value="Si" style="text;html=1;align=center;verticalAlign=middle;whiteSpace=wrap;rounded=0;" vertex="1" parent="1">
          <mxGeometry x="350" y="100" width="60" height="30" as="geometry" />
        </mxCell>
        <mxCell id="_V6j0eVr6DSJ3JSRlbaT-51" style="edgeStyle=orthogonalEdgeStyle;rounded=0;orthogonalLoop=1;jettySize=auto;html=1;entryX=1;entryY=0.5;entryDx=0;entryDy=0;" edge="1" parent="1" source="_V6j0eVr6DSJ3JSRlbaT-48" target="_V6j0eVr6DSJ3JSRlbaT-50">
          <mxGeometry relative="1" as="geometry">
            <Array as="points">
              <mxPoint x="540" y="370" />
            </Array>
          </mxGeometry>
        </mxCell>
        <mxCell id="_V6j0eVr6DSJ3JSRlbaT-48" value="Redirige a pantalla o interfaz del módulo de usuarios" style="whiteSpace=wrap;html=1;" vertex="1" parent="1">
          <mxGeometry x="480" y="130" width="120" height="70" as="geometry" />
        </mxCell>
        <mxCell id="_V6j0eVr6DSJ3JSRlbaT-55" style="edgeStyle=orthogonalEdgeStyle;rounded=0;orthogonalLoop=1;jettySize=auto;html=1;entryX=0.5;entryY=0;entryDx=0;entryDy=0;" edge="1" parent="1" source="_V6j0eVr6DSJ3JSRlbaT-50" target="_V6j0eVr6DSJ3JSRlbaT-54">
          <mxGeometry relative="1" as="geometry" />
        </mxCell>
        <mxCell id="_V6j0eVr6DSJ3JSRlbaT-50" value="Ingresa al módulo&lt;div&gt;de usuarios&amp;nbsp;&lt;/div&gt;" style="whiteSpace=wrap;html=1;" vertex="1" parent="1">
          <mxGeometry x="55" y="350" width="100" height="40" as="geometry" />
        </mxCell>
        <mxCell id="_V6j0eVr6DSJ3JSRlbaT-54" value="" style="ellipse;html=1;shape=endState;fillColor=#000000;strokeColor=#ff0000;" vertex="1" parent="1">
          <mxGeometry x="90" y="450" width="30" height="30" as="geometry" />
        </mxCell>
      </root>
    </mxGraphModel>
  </diagram>
  <diagram id="EOGMGL7LwpMsiA8FwQsy" name="Página-2">
    <mxGraphModel dx="786" dy="511" grid="1" gridSize="10" guides="1" tooltips="1" connect="1" arrows="1" fold="1" page="1" pageScale="1" pageWidth="827" pageHeight="1169" math="0" shadow="0">
      <root>
        <mxCell id="0" />
        <mxCell id="1" parent="0" />
        <mxCell id="FcAL8Ux-M97SoNNapywL-1" value="&lt;p style=&quot;margin:0px;margin-top:4px;text-align:center;&quot;&gt;&lt;b&gt;Middleware &quot;admin&quot;&lt;/b&gt;&lt;/p&gt;&lt;hr size=&quot;1&quot; style=&quot;border-style:solid;&quot;&gt;&lt;div style=&quot;height:2px;&quot;&gt;&lt;/div&gt;" style="verticalAlign=top;align=left;overflow=fill;html=1;whiteSpace=wrap;" vertex="1" parent="1">
          <mxGeometry x="330" y="30" width="210" height="800" as="geometry" />
        </mxCell>
        <mxCell id="FcAL8Ux-M97SoNNapywL-2" value="&lt;p style=&quot;margin:0px;margin-top:4px;text-align:center;&quot;&gt;&lt;b&gt;Controlador de usuarios&lt;/b&gt;&lt;/p&gt;&lt;hr size=&quot;1&quot; style=&quot;border-style:solid;&quot;&gt;&lt;div style=&quot;height:2px;&quot;&gt;&lt;/div&gt;" style="verticalAlign=top;align=left;overflow=fill;html=1;whiteSpace=wrap;" vertex="1" parent="1">
          <mxGeometry x="540" y="30" width="210" height="800" as="geometry" />
        </mxCell>
        <mxCell id="FcAL8Ux-M97SoNNapywL-3" value="&lt;p style=&quot;margin:0px;margin-top:4px;text-align:center;&quot;&gt;&lt;b&gt;Usuario&lt;/b&gt;&lt;/p&gt;&lt;hr size=&quot;1&quot; style=&quot;border-style:solid;&quot;&gt;&lt;div style=&quot;height:2px;&quot;&gt;&lt;/div&gt;" style="verticalAlign=top;align=left;overflow=fill;html=1;whiteSpace=wrap;" vertex="1" parent="1">
          <mxGeometry x="60" y="30" width="270" height="800" as="geometry" />
        </mxCell>
        <mxCell id="FcAL8Ux-M97SoNNapywL-4" value="" style="ellipse;html=1;shape=startState;fillColor=#000000;strokeColor=#ff0000;" vertex="1" parent="1">
          <mxGeometry x="190" y="60" width="30" height="30" as="geometry" />
        </mxCell>
        <mxCell id="FcAL8Ux-M97SoNNapywL-5" value="" style="edgeStyle=orthogonalEdgeStyle;html=1;verticalAlign=bottom;endArrow=open;endSize=8;strokeColor=#ff0000;rounded=0;" edge="1" parent="1" source="FcAL8Ux-M97SoNNapywL-4">
          <mxGeometry relative="1" as="geometry">
            <mxPoint x="205" y="150" as="targetPoint" />
          </mxGeometry>
        </mxCell>
        <mxCell id="FcAL8Ux-M97SoNNapywL-20" value="&lt;p style=&quot;margin:0px;margin-top:4px;text-align:center;&quot;&gt;&lt;b&gt;Base de datos&lt;/b&gt;&lt;/p&gt;&lt;hr size=&quot;1&quot; style=&quot;border-style:solid;&quot;&gt;&lt;div style=&quot;height:2px;&quot;&gt;&lt;/div&gt;" style="verticalAlign=top;align=left;overflow=fill;html=1;whiteSpace=wrap;" vertex="1" parent="1">
          <mxGeometry x="750" y="30" width="290" height="800" as="geometry" />
        </mxCell>
        <mxCell id="FcAL8Ux-M97SoNNapywL-25" style="edgeStyle=orthogonalEdgeStyle;rounded=0;orthogonalLoop=1;jettySize=auto;html=1;" edge="1" parent="1" source="FcAL8Ux-M97SoNNapywL-21" target="FcAL8Ux-M97SoNNapywL-22">
          <mxGeometry relative="1" as="geometry" />
        </mxCell>
        <mxCell id="FcAL8Ux-M97SoNNapywL-21" value="Solicita crear nuevo usuario y envía datos del nuevo usuario, además del rol de este nuevo usuario (regular o administrador)" style="html=1;whiteSpace=wrap;" vertex="1" parent="1">
          <mxGeometry x="120" y="150" width="170" height="70" as="geometry" />
        </mxCell>
        <mxCell id="FcAL8Ux-M97SoNNapywL-27" style="edgeStyle=orthogonalEdgeStyle;rounded=0;orthogonalLoop=1;jettySize=auto;html=1;" edge="1" parent="1" source="FcAL8Ux-M97SoNNapywL-22" target="FcAL8Ux-M97SoNNapywL-26">
          <mxGeometry relative="1" as="geometry">
            <Array as="points">
              <mxPoint x="440" y="290" />
            </Array>
          </mxGeometry>
        </mxCell>
        <mxCell id="FcAL8Ux-M97SoNNapywL-31" style="edgeStyle=orthogonalEdgeStyle;rounded=0;orthogonalLoop=1;jettySize=auto;html=1;" edge="1" parent="1" source="FcAL8Ux-M97SoNNapywL-22" target="FcAL8Ux-M97SoNNapywL-30">
          <mxGeometry relative="1" as="geometry" />
        </mxCell>
        <mxCell id="FcAL8Ux-M97SoNNapywL-22" value="¿Es administrador?" style="rhombus;whiteSpace=wrap;html=1;" vertex="1" parent="1">
          <mxGeometry x="390" y="140" width="100" height="90" as="geometry" />
        </mxCell>
        <mxCell id="FcAL8Ux-M97SoNNapywL-32" style="edgeStyle=orthogonalEdgeStyle;rounded=0;orthogonalLoop=1;jettySize=auto;html=1;" edge="1" parent="1" source="FcAL8Ux-M97SoNNapywL-26" target="FcAL8Ux-M97SoNNapywL-21">
          <mxGeometry relative="1" as="geometry" />
        </mxCell>
        <mxCell id="FcAL8Ux-M97SoNNapywL-26" value="Envía mensaje de error 404" style="html=1;whiteSpace=wrap;" vertex="1" parent="1">
          <mxGeometry x="365" y="280" width="150" height="50" as="geometry" />
        </mxCell>
        <mxCell id="FcAL8Ux-M97SoNNapywL-36" value="" style="edgeStyle=orthogonalEdgeStyle;rounded=0;orthogonalLoop=1;jettySize=auto;html=1;" edge="1" parent="1" source="FcAL8Ux-M97SoNNapywL-30" target="FcAL8Ux-M97SoNNapywL-35">
          <mxGeometry relative="1" as="geometry" />
        </mxCell>
        <mxCell id="FcAL8Ux-M97SoNNapywL-30" value="Recibe los datos para el nuevo usuario" style="html=1;whiteSpace=wrap;" vertex="1" parent="1">
          <mxGeometry x="580" y="160" width="150" height="50" as="geometry" />
        </mxCell>
        <mxCell id="FcAL8Ux-M97SoNNapywL-33" value="Si" style="text;html=1;align=center;verticalAlign=middle;whiteSpace=wrap;rounded=0;" vertex="1" parent="1">
          <mxGeometry x="470" y="140" width="60" height="30" as="geometry" />
        </mxCell>
        <mxCell id="FcAL8Ux-M97SoNNapywL-34" value="No" style="text;html=1;align=center;verticalAlign=middle;whiteSpace=wrap;rounded=0;" vertex="1" parent="1">
          <mxGeometry x="360" y="220" width="60" height="30" as="geometry" />
        </mxCell>
        <mxCell id="FcAL8Ux-M97SoNNapywL-40" style="edgeStyle=orthogonalEdgeStyle;rounded=0;orthogonalLoop=1;jettySize=auto;html=1;" edge="1" parent="1" source="FcAL8Ux-M97SoNNapywL-35" target="FcAL8Ux-M97SoNNapywL-39">
          <mxGeometry relative="1" as="geometry" />
        </mxCell>
        <mxCell id="FcAL8Ux-M97SoNNapywL-48" style="edgeStyle=orthogonalEdgeStyle;rounded=0;orthogonalLoop=1;jettySize=auto;html=1;entryX=0;entryY=0.5;entryDx=0;entryDy=0;" edge="1" parent="1" source="FcAL8Ux-M97SoNNapywL-35" target="FcAL8Ux-M97SoNNapywL-47">
          <mxGeometry relative="1" as="geometry" />
        </mxCell>
        <mxCell id="FcAL8Ux-M97SoNNapywL-35" value="¿Son&amp;nbsp;&lt;div&gt;validos?&lt;/div&gt;" style="rhombus;whiteSpace=wrap;html=1;" vertex="1" parent="1">
          <mxGeometry x="615" y="345" width="80" height="80" as="geometry" />
        </mxCell>
        <mxCell id="FcAL8Ux-M97SoNNapywL-62" style="edgeStyle=orthogonalEdgeStyle;rounded=0;orthogonalLoop=1;jettySize=auto;html=1;entryX=0;entryY=0.5;entryDx=0;entryDy=0;" edge="1" parent="1" source="FcAL8Ux-M97SoNNapywL-39" target="FcAL8Ux-M97SoNNapywL-21">
          <mxGeometry relative="1" as="geometry" />
        </mxCell>
        <mxCell id="FcAL8Ux-M97SoNNapywL-39" value="Envía errores de validación para los datos incorrectos y le pide al usuario que vuelva a ingresar los datos&amp;nbsp;" style="html=1;whiteSpace=wrap;" vertex="1" parent="1">
          <mxGeometry x="570" y="480" width="170" height="70" as="geometry" />
        </mxCell>
        <mxCell id="FcAL8Ux-M97SoNNapywL-45" value="No" style="text;html=1;align=center;verticalAlign=middle;whiteSpace=wrap;rounded=0;" vertex="1" parent="1">
          <mxGeometry x="660" y="425" width="60" height="30" as="geometry" />
        </mxCell>
        <mxCell id="FcAL8Ux-M97SoNNapywL-46" value="Si" style="text;html=1;align=center;verticalAlign=middle;whiteSpace=wrap;rounded=0;" vertex="1" parent="1">
          <mxGeometry x="690" y="340" width="60" height="30" as="geometry" />
        </mxCell>
        <mxCell id="FcAL8Ux-M97SoNNapywL-64" style="edgeStyle=orthogonalEdgeStyle;rounded=0;orthogonalLoop=1;jettySize=auto;html=1;entryX=1;entryY=0.5;entryDx=0;entryDy=0;" edge="1" parent="1" source="FcAL8Ux-M97SoNNapywL-47" target="FcAL8Ux-M97SoNNapywL-49">
          <mxGeometry relative="1" as="geometry">
            <Array as="points">
              <mxPoint x="867" y="620" />
            </Array>
          </mxGeometry>
        </mxCell>
        <mxCell id="FcAL8Ux-M97SoNNapywL-75" style="edgeStyle=orthogonalEdgeStyle;rounded=0;orthogonalLoop=1;jettySize=auto;html=1;exitX=1;exitY=0.5;exitDx=0;exitDy=0;entryX=0.5;entryY=0;entryDx=0;entryDy=0;" edge="1" parent="1" source="FcAL8Ux-M97SoNNapywL-47" target="FcAL8Ux-M97SoNNapywL-74">
          <mxGeometry relative="1" as="geometry" />
        </mxCell>
        <mxCell id="FcAL8Ux-M97SoNNapywL-47" value="¿Usuario&lt;div&gt;ya existe?&lt;/div&gt;" style="rhombus;whiteSpace=wrap;html=1;" vertex="1" parent="1">
          <mxGeometry x="827" y="345" width="80" height="80" as="geometry" />
        </mxCell>
        <mxCell id="FcAL8Ux-M97SoNNapywL-65" style="edgeStyle=orthogonalEdgeStyle;rounded=0;orthogonalLoop=1;jettySize=auto;html=1;entryX=0;entryY=1;entryDx=0;entryDy=0;" edge="1" parent="1" source="FcAL8Ux-M97SoNNapywL-49" target="FcAL8Ux-M97SoNNapywL-21">
          <mxGeometry relative="1" as="geometry" />
        </mxCell>
        <mxCell id="FcAL8Ux-M97SoNNapywL-49" value="Informa que un usuario con ese nombre de usuario ya existe en BDD" style="html=1;whiteSpace=wrap;" vertex="1" parent="1">
          <mxGeometry x="570" y="585" width="170" height="70" as="geometry" />
        </mxCell>
        <mxCell id="FcAL8Ux-M97SoNNapywL-51" value="Si" style="text;html=1;align=center;verticalAlign=middle;whiteSpace=wrap;rounded=0;" vertex="1" parent="1">
          <mxGeometry x="800" y="420" width="60" height="30" as="geometry" />
        </mxCell>
        <mxCell id="FcAL8Ux-M97SoNNapywL-55" value="No" style="text;html=1;align=center;verticalAlign=middle;whiteSpace=wrap;rounded=0;" vertex="1" parent="1">
          <mxGeometry x="900" y="340" width="60" height="30" as="geometry" />
        </mxCell>
        <mxCell id="FcAL8Ux-M97SoNNapywL-78" style="edgeStyle=orthogonalEdgeStyle;rounded=0;orthogonalLoop=1;jettySize=auto;html=1;" edge="1" parent="1" source="FcAL8Ux-M97SoNNapywL-74" target="FcAL8Ux-M97SoNNapywL-76">
          <mxGeometry relative="1" as="geometry" />
        </mxCell>
        <mxCell id="FcAL8Ux-M97SoNNapywL-82" style="edgeStyle=orthogonalEdgeStyle;rounded=0;orthogonalLoop=1;jettySize=auto;html=1;entryX=0.5;entryY=0;entryDx=0;entryDy=0;" edge="1" parent="1" source="FcAL8Ux-M97SoNNapywL-74">
          <mxGeometry relative="1" as="geometry">
            <mxPoint x="962" y="690" as="targetPoint" />
            <Array as="points">
              <mxPoint x="1020" y="600" />
              <mxPoint x="1020" y="670" />
              <mxPoint x="962" y="670" />
            </Array>
          </mxGeometry>
        </mxCell>
        <mxCell id="FcAL8Ux-M97SoNNapywL-74" value="¿Será&lt;div&gt;administrador?&lt;/div&gt;" style="rhombus;whiteSpace=wrap;html=1;" vertex="1" parent="1">
          <mxGeometry x="880" y="550" width="120" height="100" as="geometry" />
        </mxCell>
        <mxCell id="FcAL8Ux-M97SoNNapywL-86" style="edgeStyle=orthogonalEdgeStyle;rounded=0;orthogonalLoop=1;jettySize=auto;html=1;entryX=0.5;entryY=0;entryDx=0;entryDy=0;" edge="1" parent="1" source="FcAL8Ux-M97SoNNapywL-76" target="FcAL8Ux-M97SoNNapywL-85">
          <mxGeometry relative="1" as="geometry" />
        </mxCell>
        <mxCell id="FcAL8Ux-M97SoNNapywL-76" value="Crea nuevo usuario regular" style="html=1;whiteSpace=wrap;" vertex="1" parent="1">
          <mxGeometry x="770" y="690" width="110" height="50" as="geometry" />
        </mxCell>
        <mxCell id="FcAL8Ux-M97SoNNapywL-81" value="Si" style="text;html=1;align=center;verticalAlign=middle;whiteSpace=wrap;rounded=0;" vertex="1" parent="1">
          <mxGeometry x="960" y="630" width="60" height="30" as="geometry" />
        </mxCell>
        <mxCell id="FcAL8Ux-M97SoNNapywL-88" style="edgeStyle=orthogonalEdgeStyle;rounded=0;orthogonalLoop=1;jettySize=auto;html=1;entryX=0.5;entryY=0;entryDx=0;entryDy=0;" edge="1" parent="1" source="FcAL8Ux-M97SoNNapywL-83" target="FcAL8Ux-M97SoNNapywL-87">
          <mxGeometry relative="1" as="geometry" />
        </mxCell>
        <mxCell id="FcAL8Ux-M97SoNNapywL-83" value="Crea nuevo usuario administrador" style="html=1;whiteSpace=wrap;" vertex="1" parent="1">
          <mxGeometry x="907" y="690" width="110" height="50" as="geometry" />
        </mxCell>
        <mxCell id="FcAL8Ux-M97SoNNapywL-84" value="No" style="text;html=1;align=center;verticalAlign=middle;whiteSpace=wrap;rounded=0;" vertex="1" parent="1">
          <mxGeometry x="847" y="630" width="60" height="30" as="geometry" />
        </mxCell>
        <mxCell id="FcAL8Ux-M97SoNNapywL-85" value="" style="ellipse;html=1;shape=endState;fillColor=#000000;strokeColor=#ff0000;" vertex="1" parent="1">
          <mxGeometry x="810" y="780" width="30" height="30" as="geometry" />
        </mxCell>
        <mxCell id="FcAL8Ux-M97SoNNapywL-87" value="" style="ellipse;html=1;shape=endState;fillColor=#000000;strokeColor=#ff0000;" vertex="1" parent="1">
          <mxGeometry x="947" y="780" width="30" height="30" as="geometry" />
        </mxCell>
      </root>
    </mxGraphModel>
  </diagram>
  <diagram id="BqtGTclroQPXrM7FYali" name="Página-3">
    <mxGraphModel dx="786" dy="511" grid="1" gridSize="10" guides="1" tooltips="1" connect="1" arrows="1" fold="1" page="1" pageScale="1" pageWidth="827" pageHeight="1169" math="0" shadow="0">
      <root>
        <mxCell id="0" />
        <mxCell id="1" parent="0" />
        <mxCell id="lDg7oHTTqUVXJmIEb6y6-1" value="&lt;p style=&quot;margin:0px;margin-top:4px;text-align:center;&quot;&gt;&lt;b&gt;Middleware &quot;admin&quot;&lt;/b&gt;&lt;/p&gt;&lt;hr size=&quot;1&quot; style=&quot;border-style:solid;&quot;&gt;&lt;div style=&quot;height:2px;&quot;&gt;&lt;/div&gt;" style="verticalAlign=top;align=left;overflow=fill;html=1;whiteSpace=wrap;" vertex="1" parent="1">
          <mxGeometry x="450" y="10" width="210" height="800" as="geometry" />
        </mxCell>
        <mxCell id="lDg7oHTTqUVXJmIEb6y6-2" value="&lt;p style=&quot;margin:0px;margin-top:4px;text-align:center;&quot;&gt;&lt;b&gt;Controlador de usuarios&lt;/b&gt;&lt;/p&gt;&lt;hr size=&quot;1&quot; style=&quot;border-style:solid;&quot;&gt;&lt;div style=&quot;height:2px;&quot;&gt;&lt;/div&gt;" style="verticalAlign=top;align=left;overflow=fill;html=1;whiteSpace=wrap;" vertex="1" parent="1">
          <mxGeometry x="660" y="10" width="210" height="800" as="geometry" />
        </mxCell>
        <mxCell id="lDg7oHTTqUVXJmIEb6y6-3" value="&lt;p style=&quot;margin:0px;margin-top:4px;text-align:center;&quot;&gt;&lt;b&gt;Usuario&lt;/b&gt;&lt;/p&gt;&lt;hr size=&quot;1&quot; style=&quot;border-style:solid;&quot;&gt;&lt;div style=&quot;height:2px;&quot;&gt;&lt;/div&gt;" style="verticalAlign=top;align=left;overflow=fill;html=1;whiteSpace=wrap;" vertex="1" parent="1">
          <mxGeometry x="180" y="10" width="270" height="800" as="geometry" />
        </mxCell>
        <mxCell id="lDg7oHTTqUVXJmIEb6y6-4" value="" style="ellipse;html=1;shape=startState;fillColor=#000000;strokeColor=#ff0000;" vertex="1" parent="1">
          <mxGeometry x="310" y="40" width="30" height="30" as="geometry" />
        </mxCell>
        <mxCell id="lDg7oHTTqUVXJmIEb6y6-5" value="" style="edgeStyle=orthogonalEdgeStyle;html=1;verticalAlign=bottom;endArrow=open;endSize=8;strokeColor=#ff0000;rounded=0;" edge="1" parent="1" source="lDg7oHTTqUVXJmIEb6y6-4">
          <mxGeometry relative="1" as="geometry">
            <mxPoint x="325" y="130" as="targetPoint" />
          </mxGeometry>
        </mxCell>
        <mxCell id="lDg7oHTTqUVXJmIEb6y6-6" value="&lt;p style=&quot;margin:0px;margin-top:4px;text-align:center;&quot;&gt;&lt;b&gt;Base de datos&lt;/b&gt;&lt;/p&gt;&lt;hr size=&quot;1&quot; style=&quot;border-style:solid;&quot;&gt;&lt;div style=&quot;height:2px;&quot;&gt;&lt;/div&gt;" style="verticalAlign=top;align=left;overflow=fill;html=1;whiteSpace=wrap;" vertex="1" parent="1">
          <mxGeometry x="870" y="10" width="290" height="800" as="geometry" />
        </mxCell>
        <mxCell id="lDg7oHTTqUVXJmIEb6y6-7" style="edgeStyle=orthogonalEdgeStyle;rounded=0;orthogonalLoop=1;jettySize=auto;html=1;" edge="1" parent="1" source="lDg7oHTTqUVXJmIEb6y6-8" target="lDg7oHTTqUVXJmIEb6y6-11">
          <mxGeometry relative="1" as="geometry" />
        </mxCell>
        <mxCell id="lDg7oHTTqUVXJmIEb6y6-8" value="Solicita modificar usuario existente y envía datos, además del rol de este nuevo usuario (regular o administrador)" style="html=1;whiteSpace=wrap;" vertex="1" parent="1">
          <mxGeometry x="240" y="130" width="170" height="70" as="geometry" />
        </mxCell>
        <mxCell id="lDg7oHTTqUVXJmIEb6y6-9" style="edgeStyle=orthogonalEdgeStyle;rounded=0;orthogonalLoop=1;jettySize=auto;html=1;" edge="1" parent="1" source="lDg7oHTTqUVXJmIEb6y6-11" target="lDg7oHTTqUVXJmIEb6y6-13">
          <mxGeometry relative="1" as="geometry">
            <Array as="points">
              <mxPoint x="560" y="270" />
            </Array>
          </mxGeometry>
        </mxCell>
        <mxCell id="lDg7oHTTqUVXJmIEb6y6-10" style="edgeStyle=orthogonalEdgeStyle;rounded=0;orthogonalLoop=1;jettySize=auto;html=1;" edge="1" parent="1" source="lDg7oHTTqUVXJmIEb6y6-11" target="lDg7oHTTqUVXJmIEb6y6-15">
          <mxGeometry relative="1" as="geometry" />
        </mxCell>
        <mxCell id="lDg7oHTTqUVXJmIEb6y6-11" value="¿Es administrador?" style="rhombus;whiteSpace=wrap;html=1;" vertex="1" parent="1">
          <mxGeometry x="510" y="120" width="100" height="90" as="geometry" />
        </mxCell>
        <mxCell id="lDg7oHTTqUVXJmIEb6y6-12" style="edgeStyle=orthogonalEdgeStyle;rounded=0;orthogonalLoop=1;jettySize=auto;html=1;" edge="1" parent="1" source="lDg7oHTTqUVXJmIEb6y6-13" target="lDg7oHTTqUVXJmIEb6y6-8">
          <mxGeometry relative="1" as="geometry" />
        </mxCell>
        <mxCell id="lDg7oHTTqUVXJmIEb6y6-13" value="Envía mensaje de error 404" style="html=1;whiteSpace=wrap;" vertex="1" parent="1">
          <mxGeometry x="485" y="260" width="150" height="50" as="geometry" />
        </mxCell>
        <mxCell id="lDg7oHTTqUVXJmIEb6y6-14" value="" style="edgeStyle=orthogonalEdgeStyle;rounded=0;orthogonalLoop=1;jettySize=auto;html=1;" edge="1" parent="1" source="lDg7oHTTqUVXJmIEb6y6-15" target="lDg7oHTTqUVXJmIEb6y6-20">
          <mxGeometry relative="1" as="geometry" />
        </mxCell>
        <mxCell id="lDg7oHTTqUVXJmIEb6y6-15" value="Recibe los datos para modificar al usuario" style="html=1;whiteSpace=wrap;" vertex="1" parent="1">
          <mxGeometry x="700" y="140" width="150" height="50" as="geometry" />
        </mxCell>
        <mxCell id="lDg7oHTTqUVXJmIEb6y6-16" value="Si" style="text;html=1;align=center;verticalAlign=middle;whiteSpace=wrap;rounded=0;" vertex="1" parent="1">
          <mxGeometry x="590" y="120" width="60" height="30" as="geometry" />
        </mxCell>
        <mxCell id="lDg7oHTTqUVXJmIEb6y6-17" value="No" style="text;html=1;align=center;verticalAlign=middle;whiteSpace=wrap;rounded=0;" vertex="1" parent="1">
          <mxGeometry x="480" y="200" width="60" height="30" as="geometry" />
        </mxCell>
        <mxCell id="lDg7oHTTqUVXJmIEb6y6-18" style="edgeStyle=orthogonalEdgeStyle;rounded=0;orthogonalLoop=1;jettySize=auto;html=1;" edge="1" parent="1" source="lDg7oHTTqUVXJmIEb6y6-20" target="lDg7oHTTqUVXJmIEb6y6-22">
          <mxGeometry relative="1" as="geometry" />
        </mxCell>
        <mxCell id="lDg7oHTTqUVXJmIEb6y6-19" style="edgeStyle=orthogonalEdgeStyle;rounded=0;orthogonalLoop=1;jettySize=auto;html=1;entryX=0;entryY=0.5;entryDx=0;entryDy=0;" edge="1" parent="1" source="lDg7oHTTqUVXJmIEb6y6-20" target="lDg7oHTTqUVXJmIEb6y6-27">
          <mxGeometry relative="1" as="geometry" />
        </mxCell>
        <mxCell id="lDg7oHTTqUVXJmIEb6y6-20" value="¿Son&amp;nbsp;&lt;div&gt;validos?&lt;/div&gt;" style="rhombus;whiteSpace=wrap;html=1;" vertex="1" parent="1">
          <mxGeometry x="735" y="325" width="80" height="80" as="geometry" />
        </mxCell>
        <mxCell id="lDg7oHTTqUVXJmIEb6y6-21" style="edgeStyle=orthogonalEdgeStyle;rounded=0;orthogonalLoop=1;jettySize=auto;html=1;entryX=0;entryY=0.5;entryDx=0;entryDy=0;" edge="1" parent="1" source="lDg7oHTTqUVXJmIEb6y6-22" target="lDg7oHTTqUVXJmIEb6y6-8">
          <mxGeometry relative="1" as="geometry" />
        </mxCell>
        <mxCell id="lDg7oHTTqUVXJmIEb6y6-22" value="Envía errores de validación para los datos incorrectos y le pide al usuario que vuelva a ingresar los datos&amp;nbsp;" style="html=1;whiteSpace=wrap;" vertex="1" parent="1">
          <mxGeometry x="690" y="460" width="170" height="70" as="geometry" />
        </mxCell>
        <mxCell id="lDg7oHTTqUVXJmIEb6y6-23" value="No" style="text;html=1;align=center;verticalAlign=middle;whiteSpace=wrap;rounded=0;" vertex="1" parent="1">
          <mxGeometry x="780" y="405" width="60" height="30" as="geometry" />
        </mxCell>
        <mxCell id="lDg7oHTTqUVXJmIEb6y6-24" value="Si" style="text;html=1;align=center;verticalAlign=middle;whiteSpace=wrap;rounded=0;" vertex="1" parent="1">
          <mxGeometry x="810" y="320" width="60" height="30" as="geometry" />
        </mxCell>
        <mxCell id="lDg7oHTTqUVXJmIEb6y6-25" style="edgeStyle=orthogonalEdgeStyle;rounded=0;orthogonalLoop=1;jettySize=auto;html=1;entryX=1;entryY=0.5;entryDx=0;entryDy=0;" edge="1" parent="1" source="lDg7oHTTqUVXJmIEb6y6-27" target="lDg7oHTTqUVXJmIEb6y6-29">
          <mxGeometry relative="1" as="geometry">
            <Array as="points">
              <mxPoint x="987" y="600" />
            </Array>
          </mxGeometry>
        </mxCell>
        <mxCell id="lDg7oHTTqUVXJmIEb6y6-26" style="edgeStyle=orthogonalEdgeStyle;rounded=0;orthogonalLoop=1;jettySize=auto;html=1;exitX=1;exitY=0.5;exitDx=0;exitDy=0;entryX=0.5;entryY=0;entryDx=0;entryDy=0;" edge="1" parent="1" source="lDg7oHTTqUVXJmIEb6y6-27" target="lDg7oHTTqUVXJmIEb6y6-34">
          <mxGeometry relative="1" as="geometry" />
        </mxCell>
        <mxCell id="lDg7oHTTqUVXJmIEb6y6-27" value="¿Usuario&lt;div&gt;ya existe?&lt;/div&gt;" style="rhombus;whiteSpace=wrap;html=1;" vertex="1" parent="1">
          <mxGeometry x="947" y="325" width="80" height="80" as="geometry" />
        </mxCell>
        <mxCell id="lDg7oHTTqUVXJmIEb6y6-28" style="edgeStyle=orthogonalEdgeStyle;rounded=0;orthogonalLoop=1;jettySize=auto;html=1;entryX=0;entryY=1;entryDx=0;entryDy=0;" edge="1" parent="1" source="lDg7oHTTqUVXJmIEb6y6-29" target="lDg7oHTTqUVXJmIEb6y6-8">
          <mxGeometry relative="1" as="geometry" />
        </mxCell>
        <mxCell id="lDg7oHTTqUVXJmIEb6y6-29" value="Informa que un usuario con ese nombre de usuario ya existe en BDD" style="html=1;whiteSpace=wrap;" vertex="1" parent="1">
          <mxGeometry x="690" y="565" width="170" height="70" as="geometry" />
        </mxCell>
        <mxCell id="lDg7oHTTqUVXJmIEb6y6-30" value="Si" style="text;html=1;align=center;verticalAlign=middle;whiteSpace=wrap;rounded=0;" vertex="1" parent="1">
          <mxGeometry x="920" y="400" width="60" height="30" as="geometry" />
        </mxCell>
        <mxCell id="lDg7oHTTqUVXJmIEb6y6-31" value="No" style="text;html=1;align=center;verticalAlign=middle;whiteSpace=wrap;rounded=0;" vertex="1" parent="1">
          <mxGeometry x="1020" y="320" width="60" height="30" as="geometry" />
        </mxCell>
        <mxCell id="lDg7oHTTqUVXJmIEb6y6-32" style="edgeStyle=orthogonalEdgeStyle;rounded=0;orthogonalLoop=1;jettySize=auto;html=1;" edge="1" parent="1" source="lDg7oHTTqUVXJmIEb6y6-34" target="lDg7oHTTqUVXJmIEb6y6-36">
          <mxGeometry relative="1" as="geometry" />
        </mxCell>
        <mxCell id="lDg7oHTTqUVXJmIEb6y6-33" style="edgeStyle=orthogonalEdgeStyle;rounded=0;orthogonalLoop=1;jettySize=auto;html=1;entryX=0.5;entryY=0;entryDx=0;entryDy=0;" edge="1" parent="1" source="lDg7oHTTqUVXJmIEb6y6-34">
          <mxGeometry relative="1" as="geometry">
            <Array as="points">
              <mxPoint x="1140" y="580" />
              <mxPoint x="1140" y="650" />
              <mxPoint x="1082" y="650" />
            </Array>
            <mxPoint x="1082" y="670" as="targetPoint" />
          </mxGeometry>
        </mxCell>
        <mxCell id="lDg7oHTTqUVXJmIEb6y6-34" value="¿Será&lt;div&gt;administrador?&lt;/div&gt;" style="rhombus;whiteSpace=wrap;html=1;" vertex="1" parent="1">
          <mxGeometry x="1000" y="530" width="120" height="100" as="geometry" />
        </mxCell>
        <mxCell id="lDg7oHTTqUVXJmIEb6y6-35" style="edgeStyle=orthogonalEdgeStyle;rounded=0;orthogonalLoop=1;jettySize=auto;html=1;entryX=0.5;entryY=0;entryDx=0;entryDy=0;" edge="1" parent="1" source="lDg7oHTTqUVXJmIEb6y6-36" target="lDg7oHTTqUVXJmIEb6y6-42">
          <mxGeometry relative="1" as="geometry" />
        </mxCell>
        <mxCell id="lDg7oHTTqUVXJmIEb6y6-36" value="Modifica al usuario y le coloca rol usuario" style="html=1;whiteSpace=wrap;" vertex="1" parent="1">
          <mxGeometry x="890" y="670" width="110" height="50" as="geometry" />
        </mxCell>
        <mxCell id="lDg7oHTTqUVXJmIEb6y6-38" value="Si" style="text;html=1;align=center;verticalAlign=middle;whiteSpace=wrap;rounded=0;" vertex="1" parent="1">
          <mxGeometry x="1080" y="610" width="60" height="30" as="geometry" />
        </mxCell>
        <mxCell id="lDg7oHTTqUVXJmIEb6y6-39" style="edgeStyle=orthogonalEdgeStyle;rounded=0;orthogonalLoop=1;jettySize=auto;html=1;entryX=0.5;entryY=0;entryDx=0;entryDy=0;" edge="1" parent="1" source="lDg7oHTTqUVXJmIEb6y6-40" target="lDg7oHTTqUVXJmIEb6y6-43">
          <mxGeometry relative="1" as="geometry" />
        </mxCell>
        <mxCell id="lDg7oHTTqUVXJmIEb6y6-40" value="Modifica al usuario y le coloca rol administrador" style="html=1;whiteSpace=wrap;" vertex="1" parent="1">
          <mxGeometry x="1030" y="670" width="110" height="50" as="geometry" />
        </mxCell>
        <mxCell id="lDg7oHTTqUVXJmIEb6y6-41" value="No" style="text;html=1;align=center;verticalAlign=middle;whiteSpace=wrap;rounded=0;" vertex="1" parent="1">
          <mxGeometry x="967" y="610" width="60" height="30" as="geometry" />
        </mxCell>
        <mxCell id="lDg7oHTTqUVXJmIEb6y6-42" value="" style="ellipse;html=1;shape=endState;fillColor=#000000;strokeColor=#ff0000;" vertex="1" parent="1">
          <mxGeometry x="930" y="760" width="30" height="30" as="geometry" />
        </mxCell>
        <mxCell id="lDg7oHTTqUVXJmIEb6y6-43" value="" style="ellipse;html=1;shape=endState;fillColor=#000000;strokeColor=#ff0000;" vertex="1" parent="1">
          <mxGeometry x="1070" y="760" width="30" height="30" as="geometry" />
        </mxCell>
      </root>
    </mxGraphModel>
  </diagram>
</mxfile>
